<svg width="1000" height="1000" viewBox="0 0 1000 1000" fill="none" xmlns="http://www.w3.org/2000/svg">
    <path
        d="M500 1000C776.143 1000 1000 776.143 1000 500.001C1000 223.859 776.143 0.00195312 500 0.00195312C223.858 0.00195312 0.000976562 223.859 0.000976562 500.001C0.000976562 776.143 223.858 1000 500 1000Z"
        fill="#00ADFE" />
    <path opacity="0.3"
        d="M500.001 899.999C720.914 899.999 900 720.914 900 500C900 279.087 720.914 100.001 500.001 100.001C279.087 100.001 100.001 279.087 100.001 500C100.001 720.914 279.087 899.999 500.001 899.999Z"
        fill="#356CB6" />
    <mask id="mask0_39_287" style="mask-type:luminance" maskUnits="userSpaceOnUse" x="0" y="0" width="1000"
        height="1000">
        <path
            d="M500 999.998C776.142 999.998 999.999 776.141 999.999 499.999C999.999 223.857 776.142 0 500 0C223.857 0 0 223.857 0 499.999C0 776.141 223.857 999.998 500 999.998Z"
            fill="white" />
    </mask>
    <g mask="url(#mask0_39_287)">
        <path
            d="M649.999 758.999L928.999 835.999C960.999 846.999 985.999 870.998 999.999 901.998V999.998H0V901.998C13 870.998 39 846.999 70.9999 835.999L350 758.999V609.999H649.999V758.999Z"
            fill="#7C533E" />
    </g>
    <mask id="mask1_39_287" style="mask-type:luminance" maskUnits="userSpaceOnUse" x="0" y="0" width="1000"
        height="1000">
        <path
            d="M500 999.998C776.142 999.998 999.999 776.141 999.999 499.999C999.999 223.857 776.142 0 500 0C223.857 0 0 223.857 0 499.999C0 776.141 223.857 999.998 500 999.998Z"
            fill="white" />
    </mask>
    <g mask="url(#mask1_39_287)">
        <mask id="mask2_39_287" style="mask-type:luminance" maskUnits="userSpaceOnUse" x="0" y="609" width="1000"
            height="391">
            <path
                d="M649.999 758.999L928.999 835.999C960.999 846.999 985.999 870.998 999.999 901.998V999.998H0V901.998C13 870.998 39 846.999 70.9999 835.999L350 758.999V609.999H649.999V758.999Z"
                fill="white" />
        </mask>
        <g mask="url(#mask2_39_287)">
            <path
                d="M0 580H999.999V999.999H0V580ZM500 879.999C609.999 879.999 699.999 817 699.999 740C699.999 663 609.999 600 500 600C390 600 300 663 300 740C300 817 390 879.999 500 879.999Z"
                fill="#442178" />
        </g>
        <mask id="mask3_39_287" style="mask-type:luminance" maskUnits="userSpaceOnUse" x="0" y="609" width="1000"
            height="391">
            <path
                d="M649.999 758.999L928.999 835.999C960.999 846.999 985.999 870.998 999.999 901.998V999.998H0V901.998C13 870.998 39 846.999 70.9999 835.999L350 758.999V609.999H649.999V758.999Z"
                fill="white" />
        </mask>
        <g mask="url(#mask3_39_287)">
            <path
                d="M500 779.999C483 779.999 461 775.999 446 768.999C429 759.999 366 707.999 344 685.999C316 655.999 302 617.999 298 552.999C294 487.999 277 256 277 203C277 128 334 11.0002 498 11.0002H499H500C665 12.0002 721 128 721 203C721 256 704 487.999 700 552.999C696 617.999 682 654.999 654 685.999C633 708.999 570 759.999 552 768.999C539 775.999 517 779.999 500 779.999Z"
                fill="#614131" />
        </g>
        <mask id="mask4_39_287" style="mask-type:luminance" maskUnits="userSpaceOnUse" x="0" y="609" width="1000"
            height="391">
            <path
                d="M649.999 758.999L928.999 835.999C960.999 846.999 985.999 870.998 999.999 901.998V999.998H0V901.998C13 870.998 39 846.999 70.9999 835.999L350 758.999V609.999H649.999V758.999Z"
                fill="white" />
        </mask>
        <g mask="url(#mask4_39_287)">
            <path
                d="M500 580C373 580 270 654 270 745C270 836 373 909.999 500 909.999C627 909.999 730 836 730 745C730 654 627 580 500 580ZM500 869.999C395 869.999 310 810 310 735C310 660 395 600 500 600C605 600 690 660 690 735C690 810 605 869.999 500 869.999Z"
                fill="#5A2CA0" />
        </g>
    </g>
    <path
        d="M728.999 390.27C707.214 237.16 607.371 168.74 500.001 168.74C392.631 168.74 292.788 237.16 271.003 390.27C243.503 390.27 221.221 425.934 221.221 469.921C221.221 511.877 241.552 545.889 267.299 548.975C291.653 681.375 386.478 758.657 500.001 758.657C613.504 758.657 708.349 681.375 732.683 548.975C758.45 545.889 778.781 511.877 778.781 469.921C778.781 425.934 756.499 390.27 728.999 390.27Z"
        fill="#7C533E" />
    <path
        d="M604.596 481.197C616.849 481.197 626.873 470.502 626.873 457.431C626.873 444.36 616.849 433.666 604.596 433.666C592.344 433.666 582.319 444.36 582.319 457.431C582.319 470.502 592.344 481.197 604.596 481.197ZM404.102 481.197C416.355 481.197 426.38 470.502 426.38 457.431C426.38 444.36 416.355 433.666 404.102 433.666C391.85 433.666 381.825 444.36 381.825 457.431C381.825 470.502 391.85 481.197 404.102 481.197Z"
        fill="#262626" />
    <path
        d="M581.956 614.219C583.333 614.298 584.68 614.649 585.919 615.253C587.159 615.857 588.265 616.701 589.175 617.736C590.085 618.771 590.78 619.976 591.22 621.282C591.66 622.588 591.835 623.968 591.737 625.342C589.16 646.969 578.735 666.901 562.436 681.363C546.137 695.825 525.096 703.812 503.298 703.812C481.5 703.812 460.459 695.825 444.16 681.363C427.861 666.901 417.436 646.969 414.86 625.342C414.761 623.951 414.944 622.555 415.396 621.236C415.849 619.917 416.562 618.702 417.494 617.665C418.426 616.627 419.557 615.787 420.821 615.195C422.084 614.603 423.454 614.271 424.848 614.219H581.956Z"
        fill="#393C54" />
    <path
        d="M451.38 686.054C466.587 697.202 484.957 703.213 503.819 703.213C522.68 703.213 541.05 697.202 556.257 686.054C551.007 676.777 543.386 669.059 534.173 663.69C524.96 658.32 514.485 655.49 503.819 655.49C493.152 655.49 482.678 658.32 473.464 663.69C464.251 669.059 456.63 676.777 451.38 686.054Z"
        fill="#F85565" />
    <path
        d="M555.425 635.01H451.38C448.817 634.867 446.309 634.21 444.005 633.079C441.702 631.948 439.649 630.365 437.97 628.426C436.291 626.486 435.019 624.229 434.23 621.788C433.442 619.347 433.153 616.773 433.38 614.219H573.841C574.068 616.807 573.766 619.414 572.952 621.881C572.138 624.349 570.829 626.624 569.106 628.57C567.383 630.515 565.281 632.09 562.929 633.197C560.577 634.304 558.023 634.921 555.425 635.01Z"
        fill="white" />
    <path
        d="M529.622 533.541C528.878 533.271 528.201 533.068 527.457 533H479.567C478.823 533.068 478.079 533.271 477.403 533.541C473.074 535.3 470.706 539.764 472.736 544.567C474.765 549.369 484.302 562.762 503.512 562.762C522.722 562.762 532.26 549.301 534.289 544.567C536.318 539.764 533.951 535.3 529.622 533.541Z"
        fill="#604030" />
    <path
        d="M454.825 427.034C449.593 419.71 433.9 400.878 396.235 400.878C353.341 400.878 342.878 424.942 342.878 425.988L323 418.664C324.046 417.618 337.647 381 396.235 381C444.363 381 465.287 406.109 471.565 417.618L454.825 427.034Z"
        fill="#604030" />
    <path
        d="M666.825 427.034C661.593 419.71 645.9 400.878 608.235 400.878C565.341 400.878 554.878 424.942 554.878 425.988L535 418.664C536.046 417.618 549.647 381 608.235 381C656.363 381 677.287 406.109 683.565 417.618L666.825 427.034Z"
        fill="#604030" />
    <g className="hairComponent">
        <path d="M275.666 427.035V260.507" stroke="#393C54" stroke-width="12.5932" stroke-miterlimit="10"
            stroke-linecap="round" />
        <path d="M726 426.854V252" stroke="#393C54" stroke-width="12.5932" stroke-miterlimit="10"
            stroke-linecap="round" />
        <path fill-rule="evenodd" clip-rule="evenodd"
            d="M225 439.585C232.605 411.175 250.238 391.27 270.782 391.27C292.567 238.16 392.41 169.74 499.78 169.74C607.15 169.74 706.994 238.16 728.778 391.27C748.556 391.27 765.635 409.716 773.667 436.438V343.105C773.667 270.408 744.764 200.688 693.317 149.284C641.869 97.8789 572.091 69 499.333 69C426.576 69 356.798 97.8789 305.35 149.284C253.903 200.688 225 270.408 225 343.105V439.585Z"
            fill="#393C54" />
        <path
            d="M223 185.176C223 201.763 226.271 218.188 232.624 233.513C238.977 248.838 248.289 262.762 260.028 274.491C271.766 286.22 285.702 295.524 301.04 301.872C316.377 308.22 332.816 311.487 349.417 311.487H727.167C728.498 311.544 729.824 311.282 731.032 310.723C732.241 310.163 733.298 309.322 734.115 308.27C734.931 307.218 735.482 305.985 735.723 304.676C735.965 303.367 735.888 302.019 735.5 300.746C719.261 250.595 687.521 206.883 644.844 175.897C602.168 144.911 550.754 128.249 498 128.306H223V185.176Z"
            fill="#515570" />
        <path opacity="0.1"
            d="M547.083 253.264H357.334C335.232 253.264 314.036 244.491 298.408 228.876C282.78 213.261 274 192.083 274 170"
            stroke="white" stroke-width="12.5932" stroke-miterlimit="10" stroke-linecap="round" />
    </g>
</svg>