<svg width="1000" height="1000" viewBox="0 0 1000 1000" fill="none" xmlns="http://www.w3.org/2000/svg">
    <path
        d="M500 1000C776.143 1000 1000 776.143 1000 500.001C1000 223.859 776.143 0.00183105 500 0.00183105C223.858 0.00183105 0.000976562 223.859 0.000976562 500.001C0.000976562 776.143 223.858 1000 500 1000Z"
        fill="#00ADFE" />
    <path opacity="0.3"
        d="M500.001 899.999C720.914 899.999 900 720.914 900 500C900 279.087 720.914 100.001 500.001 100.001C279.087 100.001 100.001 279.087 100.001 500C100.001 720.914 279.087 899.999 500.001 899.999Z"
        fill="#356CB6" />
    <mask id="mask0_29_1012" style="mask-type:luminance" maskUnits="userSpaceOnUse" x="0" y="0" width="1000"
        height="1000">
        <path
            d="M500 999.998C776.142 999.998 999.999 776.141 999.999 499.999C999.999 223.857 776.142 0 500 0C223.857 0 0 223.857 0 499.999C0 776.141 223.857 999.998 500 999.998Z"
            fill="white" />
    </mask>
    <g mask="url(#mask0_29_1012)">
        <path
            d="M649.999 758.999L928.999 835.999C960.999 846.999 985.999 870.999 999.999 901.999V999.998H0V901.999C13 870.999 39 846.999 70.9999 835.999L350 758.999V609.999H649.999V758.999Z"
            fill="#7C533E" />
    </g>
    <mask id="mask1_29_1012" style="mask-type:luminance" maskUnits="userSpaceOnUse" x="0" y="0" width="1000"
        height="1000">
        <path
            d="M500 999.998C776.142 999.998 999.999 776.141 999.999 499.999C999.999 223.857 776.142 0 500 0C223.857 0 0 223.857 0 499.999C0 776.141 223.857 999.998 500 999.998Z"
            fill="white" />
    </mask>
    <g mask="url(#mask1_29_1012)">
        <mask id="mask2_29_1012" style="mask-type:luminance" maskUnits="userSpaceOnUse" x="0" y="609" width="1000"
            height="391">
            <path
                d="M649.999 758.999L928.999 835.999C960.999 846.999 985.999 870.999 999.999 901.999V999.998H0V901.999C13 870.999 39 846.999 70.9999 835.999L350 758.999V609.999H649.999V758.999Z"
                fill="white" />
        </mask>
        <g mask="url(#mask2_29_1012)">
            <path
                d="M0 580H999.999V999.999H0V580ZM500 879.999C609.999 879.999 699.999 816.999 699.999 740C699.999 663 609.999 600 500 600C390 600 300 663 300 740C300 816.999 390 879.999 500 879.999Z"
                fill="#442178" />
        </g>
        <mask id="mask3_29_1012" style="mask-type:luminance" maskUnits="userSpaceOnUse" x="0" y="609" width="1000"
            height="391">
            <path
                d="M649.999 758.999L928.999 835.999C960.999 846.999 985.999 870.999 999.999 901.999V999.998H0V901.999C13 870.999 39 846.999 70.9999 835.999L350 758.999V609.999H649.999V758.999Z"
                fill="white" />
        </mask>
        <g mask="url(#mask3_29_1012)">
            <path
                d="M500 779.999C483 779.999 461 775.999 446 768.999C429 759.999 366 707.999 344 685.999C316 655.999 302 617.999 298 552.999C294 488 277 256 277 203C277 128 334 11.0004 498 11.0004H499H500C665 12.0004 721 128 721 203C721 256 704 488 700 552.999C696 617.999 682 654.999 654 685.999C633 708.999 570 759.999 552 768.999C539 775.999 517 779.999 500 779.999Z"
                fill="#614131" />
        </g>
        <mask id="mask4_29_1012" style="mask-type:luminance" maskUnits="userSpaceOnUse" x="0" y="609" width="1000"
            height="391">
            <path
                d="M649.999 758.999L928.999 835.999C960.999 846.999 985.999 870.999 999.999 901.999V999.998H0V901.999C13 870.999 39 846.999 70.9999 835.999L350 758.999V609.999H649.999V758.999Z"
                fill="white" />
        </mask>
        <g mask="url(#mask4_29_1012)">
            <path
                d="M500 580C373 580 270 654 270 745C270 835.999 373 909.999 500 909.999C627 909.999 730 835.999 730 745C730 654 627 580 500 580ZM500 869.999C395 869.999 310 810 310 735C310 660 395 600 500 600C605 600 690 660 690 735C690 810 605 869.999 500 869.999Z"
                fill="#5A2CA0" />
        </g>
    </g>
    <path
        d="M728.999 390.27C707.214 237.16 607.371 168.739 500.001 168.739C392.631 168.739 292.788 237.16 271.003 390.27C243.503 390.27 221.221 425.934 221.221 469.921C221.221 511.877 241.552 545.888 267.299 548.975C291.653 681.375 386.478 758.657 500.001 758.657C613.504 758.657 708.349 681.375 732.683 548.975C758.45 545.888 778.781 511.877 778.781 469.921C778.781 425.934 756.499 390.27 728.999 390.27Z"
        fill="#7C533E" />
    <path
        d="M604.596 481.197C616.849 481.197 626.873 470.502 626.873 457.431C626.873 444.36 616.849 433.666 604.596 433.666C592.344 433.666 582.319 444.36 582.319 457.431C582.319 470.502 592.344 481.197 604.596 481.197ZM404.102 481.197C416.355 481.197 426.38 470.502 426.38 457.431C426.38 444.36 416.355 433.666 404.102 433.666C391.85 433.666 381.825 444.36 381.825 457.431C381.825 470.502 391.85 481.197 404.102 481.197Z"
        fill="#262626" />
    <path
        d="M581.956 614.218C583.333 614.298 584.68 614.649 585.919 615.253C587.159 615.857 588.265 616.701 589.175 617.736C590.085 618.771 590.78 619.976 591.22 621.282C591.66 622.588 591.835 623.968 591.737 625.342C589.16 646.969 578.735 666.901 562.436 681.363C546.137 695.825 525.096 703.812 503.298 703.812C481.5 703.812 460.459 695.825 444.16 681.363C427.861 666.901 417.436 646.969 414.86 625.342C414.761 623.951 414.944 622.555 415.396 621.236C415.849 619.917 416.562 618.702 417.494 617.665C418.426 616.627 419.557 615.787 420.821 615.195C422.084 614.603 423.454 614.271 424.848 614.218H581.956Z"
        fill="#393C54" />
    <path
        d="M451.38 686.054C466.587 697.202 484.957 703.213 503.819 703.213C522.68 703.213 541.05 697.202 556.257 686.054C551.007 676.777 543.386 669.059 534.173 663.69C524.96 658.32 514.485 655.49 503.819 655.49C493.152 655.49 482.678 658.32 473.464 663.69C464.251 669.059 456.63 676.777 451.38 686.054Z"
        fill="#F85565" />
    <path
        d="M555.425 635.01H451.38C448.817 634.867 446.309 634.21 444.005 633.079C441.702 631.948 439.649 630.365 437.97 628.425C436.291 626.486 435.019 624.229 434.23 621.788C433.442 619.347 433.153 616.773 433.38 614.218H573.841C574.068 616.806 573.766 619.414 572.952 621.881C572.138 624.349 570.829 626.624 569.106 628.57C567.383 630.515 565.281 632.09 562.929 633.197C560.577 634.304 558.023 634.921 555.425 635.01Z"
        fill="white" />
    <path
        d="M749.606 332.082C754.793 326.033 756.565 316.344 754.005 307.552C751.97 300.495 747.44 295.174 741.203 292.43C743.37 289.854 747.309 284.029 747.374 275.853C747.571 262.804 741.203 253.283 727.876 246.786C732.538 228.361 719.473 208.871 698.662 203.27C698.4 193.694 693.542 184.229 685.139 177.228C677.195 170.62 667.151 166.924 656.712 166.867C653.43 157.907 645.88 150.122 635.836 145.418C626.185 140.937 615.419 139.761 605.44 142.113C593.952 126.488 569.399 120.775 550.557 129.344C539.2 119.431 521.606 115.959 506.375 120.775C504.734 121.336 501.977 122.568 500.007 123.52C498.038 122.568 495.346 121.336 493.639 120.775C478.409 115.959 460.815 119.431 449.457 129.344C430.616 120.775 406.063 126.488 394.574 142.113C384.53 139.761 373.829 140.881 364.179 145.418C354.134 150.122 346.585 157.85 343.302 166.867C332.864 166.925 322.819 170.564 314.876 177.228C306.538 184.229 301.615 193.637 301.352 203.27C280.607 208.871 267.477 228.361 272.138 246.786C258.877 253.283 252.443 262.804 252.64 275.853C252.772 283.973 256.711 289.854 258.811 292.43C252.575 295.231 248.045 300.551 246.01 307.552C243.449 316.344 245.222 326.033 250.408 332.082C238.066 344.907 239.051 363.164 253.034 377.165C248.176 384.67 246.601 393.351 250.211 404.272C255.398 418.329 268.856 420.401 268.856 420.401C260.912 436.026 274.961 458.428 285.925 461.621C285.925 461.621 296.888 331.354 333.192 292.374C337.065 295.679 344.352 301.727 358.533 299.263C370.875 297.134 375.93 293.55 379.475 287.558C380.657 292.822 384.07 297.695 389.585 300.999C400.811 307.719 416.501 305.423 424.445 295.847C425.298 294.838 425.955 293.718 426.546 292.654C429.565 301.447 436.656 308.391 448.013 309.736C459.239 311.024 469.809 306.431 475.586 298.815C478.212 302.567 485.893 311.92 499.876 311.92C513.925 311.92 522.065 302.567 524.691 298.815C530.469 306.431 541.038 311.08 552.264 309.736C563.622 308.391 570.252 301.447 573.272 292.654C573.863 293.774 574.519 294.838 575.373 295.847C579.218 300.447 585.035 303.569 591.562 304.533C598.088 305.498 604.797 304.228 610.233 300.999C615.53 297.816 619.159 292.992 620.343 287.558C623.822 293.495 630.059 300.215 647.587 298.479C661.308 297.135 666.625 289.126 666.625 289.126C697.218 320.545 714.287 461.621 714.287 461.621C723.15 458.877 734.573 439.555 734.901 422.473C744.092 417.825 750.329 410.936 752.429 400.631C754.596 390.327 751.707 384.67 746.849 377.165C760.964 363.164 761.948 344.907 749.606 332.082Z"
        fill="#3C2C23" />
    <path
        d="M529.622 533.541C528.878 533.271 528.201 533.068 527.457 533H479.567C478.823 533.068 478.079 533.271 477.403 533.541C473.074 535.3 470.706 539.764 472.736 544.567C474.765 549.369 484.302 562.762 503.512 562.762C522.722 562.762 532.26 549.301 534.289 544.567C536.318 539.764 533.951 535.3 529.622 533.541Z"
        fill="#604030" />
    <path
        d="M454.825 427.034C449.593 419.71 433.9 400.878 396.235 400.878C353.341 400.878 342.878 424.942 342.878 425.988L323 418.664C324.046 417.618 337.647 381 396.235 381C444.363 381 465.287 406.109 471.565 417.618L454.825 427.034Z"
        fill="#604030" />
    <path
        d="M666.825 427.034C661.593 419.71 645.9 400.878 608.235 400.878C565.341 400.878 554.878 424.942 554.878 425.988L535 418.664C536.046 417.618 549.647 381 608.235 381C656.363 381 677.287 406.109 683.565 417.618L666.825 427.034Z"
        fill="#604030" />
</svg>