<svg width="100" height="100" viewBox="0 0 100 100" fill="none" xmlns="http://www.w3.org/2000/svg">
    <path
        d="M50 100C77.6142 100 99.9999 77.6143 99.9999 50.0001C99.9999 22.3859 77.6142 0.000183105 50 0.000183105C22.3857 0.000183105 0 22.3859 0 50.0001C0 77.6143 22.3857 100 50 100Z"
        fill="#00ADFE" />
    <path opacity="0.3"
        d="M50 89.9999C72.0913 89.9999 89.9999 72.0913 89.9999 50C89.9999 27.9087 72.0913 10.0001 50 10.0001C27.9086 10.0001 10 27.9087 10 50C10 72.0913 27.9086 89.9999 50 89.9999Z"
        fill="#356CB6" />
    <mask id="mask0_4_2" style="mask-type:luminance" maskUnits="userSpaceOnUse" x="0" y="0" width="100" height="100">
        <path
            d="M50 99.9998C77.6142 99.9998 99.9999 77.6141 99.9999 49.9999C99.9999 22.3857 77.6142 0 50 0C22.3857 0 0 22.3857 0 49.9999C0 77.6141 22.3857 99.9998 50 99.9998Z"
            fill="white" />
    </mask>
    <g mask="url(#mask0_4_2)">
        <path
            d="M64.9999 75.8999L92.8999 83.5999C96.0999 84.6999 98.5999 87.0999 99.9999 90.1999V99.9998H0V90.1999C1.3 87.0999 3.9 84.6999 7.09999 83.5999L35 75.8999V60.9999H64.9999V75.8999Z"
            fill="#7C533E" />
    </g>
    <mask id="mask1_4_2" style="mask-type:luminance" maskUnits="userSpaceOnUse" x="0" y="0" width="100" height="100">
        <path
            d="M50 99.9998C77.6142 99.9998 99.9999 77.6141 99.9999 49.9999C99.9999 22.3857 77.6142 0 50 0C22.3857 0 0 22.3857 0 49.9999C0 77.6141 22.3857 99.9998 50 99.9998Z"
            fill="white" />
    </mask>
    <g mask="url(#mask1_4_2)">
        <mask id="mask2_4_2" style="mask-type:luminance" maskUnits="userSpaceOnUse" x="0" y="61" width="100"
            height="39">
            <path
                d="M64.9999 75.8999L92.8999 83.5999C96.0999 84.6999 98.5999 87.0999 99.9999 90.1999V99.9998H0V90.1999C1.3 87.0999 3.9 84.6999 7.09999 83.5999L35 75.8999V60.9999H64.9999V75.8999Z"
                fill="white" />
        </mask>
        <g mask="url(#mask2_4_2)">
            <path
                d="M0 58H99.9999V99.9999H0V58ZM50 87.9999C60.9999 87.9999 69.9999 81.6999 69.9999 74C69.9999 66.3 60.9999 60 50 60C39 60 30 66.3 30 74C30 81.6999 39 87.9999 50 87.9999Z"
                fill="#442178" />
        </g>
        <mask id="mask3_4_2" style="mask-type:luminance" maskUnits="userSpaceOnUse" x="0" y="61" width="100"
            height="39">
            <path
                d="M64.9999 75.8999L92.8999 83.5999C96.0999 84.6999 98.5999 87.0999 99.9999 90.1999V99.9998H0V90.1999C1.3 87.0999 3.9 84.6999 7.09999 83.5999L35 75.8999V60.9999H64.9999V75.8999Z"
                fill="white" />
        </mask>
        <g mask="url(#mask3_4_2)">
            <path
                d="M50.0002 77.9999C48.3002 77.9999 46.1002 77.5999 44.6002 76.8999C42.9002 75.9999 36.6002 70.7999 34.4002 68.5999C31.6002 65.5999 30.2002 61.7999 29.8002 55.2999C29.4002 48.7999 27.7002 25.6 27.7002 20.3C27.7002 12.8 33.4002 1.10003 49.8002 1.10003H49.9002H50.0002C66.5002 1.20003 72.1002 12.8 72.1002 20.3C72.1002 25.6 70.4002 48.7999 70.0002 55.2999C69.6002 61.7999 68.2002 65.4999 65.4002 68.5999C63.3002 70.8999 57.0002 75.9999 55.2002 76.8999C53.9002 77.5999 51.7002 77.9999 50.0002 77.9999Z"
                fill="#614131" />
        </g>
        <mask id="mask4_4_2" style="mask-type:luminance" maskUnits="userSpaceOnUse" x="0" y="61" width="100"
            height="39">
            <path
                d="M64.9999 75.8999L92.8999 83.5999C96.0999 84.6999 98.5999 87.0999 99.9999 90.1999V99.9998H0V90.1999C1.3 87.0999 3.9 84.6999 7.09999 83.5999L35 75.8999V60.9999H64.9999V75.8999Z"
                fill="white" />
        </mask>
        <g mask="url(#mask4_4_2)">
            <path
                d="M50 58C37.3 58 27 65.4 27 74.5C27 83.5999 37.3 90.9999 50 90.9999C62.7 90.9999 73 83.5999 73 74.5C73 65.4 62.7 58 50 58ZM50 86.9999C39.5 86.9999 31 80.9999 31 73.5C31 66 39.5 60 50 60C60.5 60 69 66 69 73.5C69 80.9999 60.5 86.9999 50 86.9999Z"
                fill="#5A2CA0" />
        </g>
    </g>
    <path
        d="M72.8999 39.027C70.7214 23.716 60.7371 16.8739 50.0001 16.8739C39.2631 16.8739 29.2788 23.716 27.1003 39.027C24.3503 39.027 22.1221 42.5934 22.1221 46.9921C22.1221 51.1877 24.1552 54.5888 26.7299 54.8975C29.1653 68.1375 38.6478 75.8657 50.0001 75.8657C61.3504 75.8657 70.835 68.1375 73.2683 54.8975C75.845 54.5888 77.8781 51.1877 77.8781 46.9921C77.8781 42.5934 75.6499 39.027 72.8999 39.027Z"
        fill="#7C533E" />
    <path
        d="M45.9621 41.6865C45.4378 40.9526 43.8652 39.0655 40.0909 39.0655C35.7924 39.0655 34.7439 41.4769 34.7439 41.5817L32.752 40.8478C32.8567 40.7429 34.2197 37.0735 40.0909 37.0735C44.9137 37.0735 47.0105 39.5897 47.6396 40.7429L45.9621 41.6865Z"
        fill="#5A3D2F" />
    <path
        d="M51.8584 53.8497C51.8584 53.5117 51.8584 45.8483 51.8584 43.707C51.8584 40.8896 54.6758 37.0579 60.8741 36.9452C67.0725 36.9452 68.6502 40.8896 68.763 41.0023L66.6217 41.7912C66.6217 41.6785 65.4948 39.1992 60.8741 39.0865C56.2535 39.0865 54.1123 41.7912 54.1123 43.5943C54.1123 45.7356 54.1123 53.6243 54.1123 53.737L51.8584 53.8497Z"
        fill="#5A3D2F" />
    <path
        d="M60.4597 48.1197C61.685 48.1197 62.6874 47.0502 62.6874 45.7431C62.6874 44.436 61.685 43.3666 60.4597 43.3666C59.2345 43.3666 58.232 44.436 58.232 45.7431C58.232 47.0502 59.2345 48.1197 60.4597 48.1197ZM40.4103 48.1197C41.6356 48.1197 42.638 47.0502 42.638 45.7431C42.638 44.436 41.6356 43.3666 40.4103 43.3666C39.1851 43.3666 38.1826 44.436 38.1826 45.7431C38.1826 47.0502 39.1851 48.1197 40.4103 48.1197Z"
        fill="#262626" />
    <g transform="scale(0.125), translate(330, 490)">
        <path opacity="0.5"
            d="M141.317 40.2655C116.969 70.2547 110.749 77.8276 72.8712 77.8276C34.9938 77.8276 12.1485 51.8383 4.42587 40.2655C-14.3124 12.185 37.386 -6.56823 72.8712 2.82225C107.16 -7.51922 162.594 14.0572 141.317 40.2655Z"
            fill="#F85565" />
        <path
            d="M124.443 12.1494C125.339 12.2009 126.216 12.4298 127.022 12.8228C127.829 13.2158 128.549 13.765 129.141 14.4386C129.734 15.1122 130.186 15.8968 130.472 16.7466C130.758 17.5964 130.873 18.4946 130.808 19.3889C129.132 33.4643 122.347 46.4365 111.739 55.8487C101.131 65.2608 87.4372 70.4591 73.2506 70.4591C59.064 70.4591 45.3699 65.2608 34.7621 55.8487C24.1544 46.4365 17.3695 33.4643 15.6927 19.3889C15.6285 18.4837 15.7472 17.5749 16.0418 16.7165C16.3363 15.8581 16.8006 15.0676 17.4071 14.3922C18.0136 13.7168 18.7499 13.1701 19.5721 12.7848C20.3944 12.3995 21.2858 12.1834 22.1934 12.1494H124.443Z"
            fill="#393C54" />
        <path
            d="M39.46 58.9019C49.3573 66.1574 61.3128 70.0695 73.5883 70.0695C85.8638 70.0695 97.8195 66.1574 107.717 58.9019C104.3 52.8643 99.3398 47.8414 93.3436 44.3466C87.3475 40.8517 80.5301 39.0103 73.5883 39.0103C66.6465 39.0103 59.8293 40.8517 53.8331 44.3466C47.837 47.8414 42.8769 52.8643 39.46 58.9019Z"
            fill="#F85565" />
        <path
            d="M107.176 25.681H39.4609C37.7929 25.5878 36.1607 25.1604 34.6615 24.4242C33.1622 23.688 31.8265 22.6581 30.7336 21.3957C29.6407 20.1333 28.813 18.6642 28.2998 17.0758C27.7866 15.4873 27.5983 13.812 27.7462 12.1494H119.161C119.31 13.8338 119.113 15.5306 118.583 17.1365C118.053 18.7423 117.202 20.2235 116.08 21.4897C114.959 22.7559 113.591 23.7805 112.06 24.5012C110.529 25.2218 108.867 25.6232 107.176 25.681Z"
            fill="white" />
    </g>
    <g transform="translate(27, 11)" className="hairGroup">
        <path
            d="M47.2 23.6C47.2 17.3409 44.7136 11.3381 40.2877 6.91227C35.8619 2.48643 29.8591 0 23.6 0C17.3409 0 11.3382 2.48643 6.91229 6.91227C2.48643 11.3381 0 17.3409 0 23.6V28.2416H0.774963C3.99996 28.2416 6.60834 18.9666 6.60834 15.7416V15.8833C9.54167 19.0166 16.0916 21.2 23.7083 21.2C31.5916 21.2 38.325 18.8666 41.1 15.5583V15.7416C41.1 18.9666 43.7083 28.2416 46.9333 28.2416H47.2V23.6Z"
            fill="#1F1C1B" />
    </g>
</svg>